<?xml version="1.0" encoding="utf-8"?>
<!-- Generator: Adobe Illustrator 26.2.1, SVG Export Plug-In . SVG Version: 6.00 Build 0)  -->
<svg version="1.1" xmlns="http://www.w3.org/2000/svg" xmlns:xlink="http://www.w3.org/1999/xlink" x="0px" y="0px"
	 viewBox="0 0 23.9 30" enable-background="new 0 0 23.9 30" xml:space="preserve">
<g id="bg_00000065787940371766393870000004238595996420602026_">
</g>
<g id="pic">
</g>
<g id="icon">
	<g>
		<path fill="#7C7B7B" d="M1.8,26.5c0,1.9,1.6,3.5,3.5,3.5h13.3c1.9,0,3.5-1.6,3.5-3.5V7.2H1.8V26.5z M6.1,14.7l2-2l3.9,3.9l3.9-3.9
			l2,2l-3.9,3.9l3.9,3.9l-2,2L12,20.6L8,24.5l-2-2l3.9-3.9L6.1,14.7z"/>
		<polygon fill="#7C7B7B" points="18.2,1.4 17.5,0 6.4,0 5.7,1.4 0,1.4 0,5.2 23.9,5.2 23.9,1.4 		"/>
	</g>
</g>
</svg>
