<?xml version="1.0" encoding="utf-8"?>
<!-- Generator: Adobe Illustrator 26.2.1, SVG Export Plug-In . SVG Version: 6.00 Build 0)  -->
<svg version="1.1" id="圖層_1" xmlns="http://www.w3.org/2000/svg" xmlns:xlink="http://www.w3.org/1999/xlink" x="0px" y="0px"
	 viewBox="0 0 24 24" style="enable-background:new 0 0 24 24;" xml:space="preserve">
<style type="text/css">
	.st0{fill:#7C7B7B;}
</style>
<g id="bg_00000065787940371766393870000004238595996420602026_">
</g>
<g id="pic">
</g>
<g id="icon">
	<g>
		<g>
			<path class="st0" d="M22.8,0l-2.9,0.5c-3,0.4-5.6,1.8-7.5,3.9L9,8.1L4.4,7.8c-0.3,0-0.5,0.1-0.6,0.3l-2.3,3.4
				c-0.2,0.3-0.1,0.8,0.3,1L5,14l4.9,4.9l1.4,3.2c0.2,0.4,0.7,0.5,1,0.3l3.5-2.3c0.2-0.1,0.3-0.3,0.3-0.6l-0.3-4.6l3.6-3.4
				C21.7,9.6,23,7,23.4,4.1L24,1.2C24.1,0.5,23.5-0.1,22.8,0z M17.3,9.6c-0.8,0.8-2.1,0.8-2.9,0c-0.8-0.8-0.8-2.1,0-2.9
				c0.8-0.8,2.1-0.8,2.9,0C18.2,7.5,18.2,8.8,17.3,9.6z"/>
			<path class="st0" d="M8.3,19.5l-3.8-3.8c-0.1-0.1-0.3-0.1-0.4,0c-0.2,0.2-0.5,0.5-0.6,0.6C0.1,19.7,0,24,0,24s4.3-0.1,7.7-3.5
				c0.1-0.1,0.4-0.4,0.6-0.6C8.4,19.8,8.4,19.7,8.3,19.5z"/>
		</g>
	</g>
</g>
</svg>
