<?xml version="1.0" encoding="utf-8"?>
<!-- Generator: Adobe Illustrator 24.0.3, SVG Export Plug-In . SVG Version: 6.00 Build 0)  -->
<svg version="1.1" id="圖層_1" xmlns="http://www.w3.org/2000/svg" xmlns:xlink="http://www.w3.org/1999/xlink" x="0px" y="0px"
	 viewBox="0 0 20 20" style="enable-background:new 0 0 20 20;" xml:space="preserve">
<style type="text/css">
	.st0{fill:#7C7B7B;}
</style>
<title>ai_1920x108v2</title>
<path class="st0" d="M19.2,6.3L19.2,6.3l-1.3,2.3v9.2H2.1V2.2h11.5l0.5-0.9l0,0l0.3-0.5L15,0H2.2C1,0,0,1,0,2.2c0,0,0,0,0,0v15.6
	C0,19,1,20,2.2,20c0,0,0,0,0,0h15.6c1.2,0,2.2-1,2.2-2.2v0V4.9L19.2,6.3z"/>
<polygon class="st0" points="10.4,10.5 10.4,14.6 14,12.6 18.2,5.2 14.6,3.1 "/>
<path class="st0" d="M19.2,3.5c0.5-0.9,0.1-2.1-0.8-2.6c0,0-0.1,0-0.1,0c-0.9-0.6-2-0.4-2.7,0.4c0,0,0,0,0,0.1l-0.5,0.9l3.6,2.1
	L19.2,3.5z"/>
</svg>
