<?xml version="1.0" encoding="utf-8"?>
<!-- Generator: Adobe Illustrator 26.2.1, SVG Export Plug-In . SVG Version: 6.00 Build 0)  -->
<svg version="1.1" xmlns="http://www.w3.org/2000/svg" xmlns:xlink="http://www.w3.org/1999/xlink" x="0px" y="0px"
	 viewBox="0 0 36.9 30" enable-background="new 0 0 36.9 30" xml:space="preserve">
<g id="bg_00000065787940371766393870000004238595996420602026_">
</g>
<g id="pic">
</g>
<g id="icon">
	<g>
		<g>
			<path fill="#7C7B7B" d="M26.4,30H2.1C0.9,30,0,29.1,0,27.9V3.6c0-1.1,0.9-2.1,2.1-2.1h13c0.8,0,1.5,0.7,1.5,1.5S15.9,4.5,15,4.5
				H3V27h22.5v-8.3c0-0.8,0.7-1.5,1.5-1.5c0.8,0,1.5,0.7,1.5,1.5v9.2C28.5,29.1,27.6,30,26.4,30z"/>
		</g>
		<path fill="#7C7B7B" d="M36.7,6.4l-9.1-6.3c-0.3-0.2-0.8,0-0.8,0.4v2.2c0,0.3-0.2,0.5-0.5,0.5c-11.3,0.2-13.8,9-14.4,13.4
			c-0.1,0.5,0.6,0.8,0.9,0.3c1.6-2.5,5.5-6.4,13.5-6.5c0.3,0,0.5,0.2,0.5,0.5v2.2c0,0.4,0.5,0.6,0.8,0.4l9.1-6.3
			C37,7,37,6.6,36.7,6.4z"/>
	</g>
</g>
</svg>
