<?xml version="1.0" encoding="utf-8"?>
<!-- Generator: Adobe Illustrator 26.2.1, SVG Export Plug-In . SVG Version: 6.00 Build 0)  -->
<svg version="1.1" id="圖層_1" xmlns="http://www.w3.org/2000/svg" xmlns:xlink="http://www.w3.org/1999/xlink" x="0px" y="0px"
	 viewBox="0 0 97.1 150.9" style="enable-background:new 0 0 97.1 150.9;" xml:space="preserve">
<style type="text/css">
	.st0{fill:url(#SVGID_1_);}
	
		.st1{fill:none;stroke:url(#SVGID_00000039117274465268527580000004345106732822470539_);stroke-width:13.2447;stroke-linecap:round;stroke-linejoin:round;stroke-miterlimit:10;}
	
		.st2{fill:none;stroke:url(#SVGID_00000096766183636350514370000005374089925571927688_);stroke-width:13.2447;stroke-linecap:round;stroke-linejoin:round;stroke-miterlimit:10;}
	
		.st3{fill:none;stroke:url(#SVGID_00000061463135693280466920000013336308086719735465_);stroke-width:13.2447;stroke-linecap:round;stroke-linejoin:round;stroke-miterlimit:10;}
	.st4{fill:#7C7B7B;}
	.st5{fill:#00A6FF;}
</style>
<g id="bg_00000065787940371766393870000004238595996420602026_">
</g>
<g id="pic">
</g>
<g id="icon">
	<g>
		
			<linearGradient id="SVGID_1_" gradientUnits="userSpaceOnUse" x1="57.0801" y1="101.39" x2="40.0512" y2="101.39" gradientTransform="matrix(1 0 0 -1 0 109.89)">
			<stop  offset="0" style="stop-color:#B2B4B6"/>
			<stop  offset="1" style="stop-color:#787878"/>
		</linearGradient>
		<circle class="st0" cx="48.6" cy="8.5" r="8.5"/>
		<g>
			
				<linearGradient id="SVGID_00000080884781283033930230000004273360653924432278_" gradientUnits="userSpaceOnUse" x1="-674.6634" y1="2819.6187" x2="-712.1552" y2="2884.5564" gradientTransform="matrix(0.5 -0.866 -0.866 -0.5 2834.343 892.2511)">
				<stop  offset="0" style="stop-color:#B2B4B6"/>
				<stop  offset="1" style="stop-color:#787878"/>
			</linearGradient>
			
				<path style="fill:none;stroke:url(#SVGID_00000080884781283033930230000004273360653924432278_);stroke-width:13.2447;stroke-linecap:round;stroke-linejoin:round;stroke-miterlimit:10;" d="
				M7.2,102.5c12.2-7,22.7-17.3,30.2-30.3s11.1-27.3,11.2-41.3"/>
			
				<linearGradient id="SVGID_00000142872704569162472260000018176189996339899281_" gradientUnits="userSpaceOnUse" x1="4139.7563" y1="4101.417" x2="4271.5288" y2="4101.417" gradientTransform="matrix(-1 0 0 1 4236.2788 -4004.417)">
				<stop  offset="0" style="stop-color:#B2B4B6"/>
				<stop  offset="1" style="stop-color:#787878"/>
			</linearGradient>
			
				<path style="fill:none;stroke:url(#SVGID_00000142872704569162472260000018176189996339899281_);stroke-width:13.2447;stroke-linecap:round;stroke-linejoin:round;stroke-miterlimit:10;" d="
				M89.9,102.5c-12.2-7-26.3-11-41.3-11s-29.2,4-41.3,11"/>
			
				<linearGradient id="SVGID_00000024713374867943870210000013960048196115874962_" gradientUnits="userSpaceOnUse" x1="1374.4659" y1="-729.472" x2="1411.9576" y2="-794.4098" gradientTransform="matrix(-0.5 -0.866 0.866 -0.5 1415.4775 892.2511)">
				<stop  offset="0" style="stop-color:#B2B4B6"/>
				<stop  offset="1" style="stop-color:#787878"/>
			</linearGradient>
			
				<path style="fill:none;stroke:url(#SVGID_00000024713374867943870210000013960048196115874962_);stroke-width:13.2447;stroke-linecap:round;stroke-linejoin:round;stroke-miterlimit:10;" d="
				M89.9,102.5c-12.2-7-22.7-17.3-30.2-30.3S48.6,44.9,48.6,30.9"/>
		</g>
	</g>
</g>
<g id="icon_00000096762132614986717140000005368108922905860788_">
	<g>
		<path class="st4" d="M0,150.4l11.3-23.8h0.2l11.4,23.7h-5.2l-1.9-4.1H7l-1.8,4.1H0V150.4z M8.6,142.7h5.7
			c-1.3-2.9-2.2-5.2-2.8-6.9c0,0.1-0.4,1.1-1.2,2.9S9,141.9,8.6,142.7z"/>
		<path class="st5" d="M28,122.4c0-0.8,0.2-1.4,0.7-1.9s1.1-0.7,2-0.7c0.8,0,1.5,0.2,2,0.7s0.7,1.1,0.7,1.9c0,0.8-0.2,1.4-0.7,1.9
			s-1.1,0.7-1.9,0.7s-1.5-0.2-2-0.7C28.2,123.8,28,123.2,28,122.4z"/>
		<path class="st4" d="M40.8,145.7V127h4.8v17.7c0,1.3,0.5,2,1.6,2c0.6,0,1.1-0.1,1.6-0.3v4c-0.7,0.3-1.7,0.5-3.1,0.5
			c-1.5,0-2.7-0.4-3.6-1.2C41.3,148.8,40.8,147.5,40.8,145.7z"/>
		<path class="st5" d="M54.7,129.5c0-0.8,0.2-1.4,0.7-1.9s1.1-0.7,2-0.7s1.5,0.2,2,0.7s0.7,1.1,0.7,1.9c0,0.8-0.2,1.4-0.7,1.9
			s-1.1,0.7-1.9,0.7c-0.8,0-1.5-0.2-2-0.7S54.7,130.3,54.7,129.5z"/>
		<rect x="55" y="134.1" class="st4" width="4.9" height="16.2"/>
		<path class="st4" d="M66,134.1h2.3v-1.5c0-1.9,0.6-3.4,1.8-4.5c1.2-1.1,2.8-1.7,5-1.7c0.8,0,1.6,0.1,2.1,0.2v4.2
			c-0.4-0.2-1-0.2-1.7-0.2c-0.8,0-1.5,0.2-2,0.7s-0.7,1.1-0.7,1.9v0.9h3.8v3.8H73v12.4h-4.8v-12.4H66V134.1z"/>
		<path class="st4" d="M89.5,133.7c2.4,0,4.2,0.7,5.6,2.2c1.3,1.5,2,3.3,2,5.4c0,0.5,0,1.1-0.1,2H86.3c0.1,1.1,0.5,2,1.3,2.6
			s1.9,0.9,3.2,0.9c1.1,0,2.1-0.1,3.2-0.4c1.1-0.2,1.9-0.5,2.4-0.8v4.1c-1.5,0.8-3.5,1.2-6.1,1.2c-2.7,0-5-0.8-6.6-2.4
			c-1.7-1.6-2.5-3.7-2.5-6.2c0-2.4,0.8-4.5,2.4-6.1C85.3,134.5,87.2,133.7,89.5,133.7z M92.5,140.7c0-0.9-0.2-1.7-0.7-2.3
			c-0.5-0.6-1.3-0.9-2.2-0.9c-0.9,0-1.7,0.3-2.2,0.9c-0.6,0.6-0.9,1.4-0.9,2.3H92.5z"/>
		<path class="st4" d="M28,145.7V127h4.8v17.7c0,1.3,0.5,2,1.6,2c0.6,0,1.1-0.1,1.6-0.3v4c-0.6,0.3-1.7,0.4-3,0.4
			c-1.5,0-2.7-0.4-3.6-1.2C28.4,148.8,28,147.5,28,145.7z"/>
	</g>
</g>
</svg>
