<?xml version="1.0" encoding="utf-8"?>
<!-- Generator: Adobe Illustrator 26.2.1, SVG Export Plug-In . SVG Version: 6.00 Build 0)  -->
<svg version="1.1" xmlns="http://www.w3.org/2000/svg" xmlns:xlink="http://www.w3.org/1999/xlink" x="0px" y="0px"
	 viewBox="0 0 29.4 30" enable-background="new 0 0 29.4 30" xml:space="preserve">
<g id="bg_00000065787940371766393870000004238595996420602026_">
</g>
<g id="pic">
</g>
<g id="icon">
	<path id="icon_00000127726313591228433140000004264675115310237617_" fill="#7C7B7B" d="M28.3,16.9l-2.6-1.5c0-0.1,0-0.3,0-0.4
		c0-0.1,0-0.3,0-0.4l2.6-1.5c0.5-0.3,0.9-0.8,1.1-1.4c0.2-0.6,0.1-1.2-0.2-1.8l-2.8-4.9c-0.6-1.1-2.1-1.5-3.2-0.8l-2.6,1.5
		c-0.2-0.1-0.4-0.3-0.7-0.4v-3c0-1.3-1-2.3-2.3-2.3h-5.7c-1.3,0-2.3,1-2.3,2.3v3C9.3,5.4,9.1,5.6,8.9,5.7L6.3,4.2
		C5.2,3.6,3.8,3.9,3.1,5.1L0.3,9.9c-0.3,0.5-0.4,1.2-0.2,1.8c0.2,0.6,0.5,1.1,1.1,1.4l2.6,1.5c0,0.1,0,0.3,0,0.4c0,0.1,0,0.3,0,0.4
		l-2.6,1.5c-0.5,0.3-0.9,0.8-1.1,1.4c-0.2,0.6-0.1,1.2,0.2,1.8l2.8,4.9c0.6,1.1,2.1,1.5,3.2,0.8l2.6-1.5c0.2,0.1,0.4,0.3,0.7,0.4v3
		c0,1.3,1,2.3,2.3,2.3h5.7c1.3,0,2.3-1,2.3-2.3v-3c0.2-0.1,0.4-0.2,0.7-0.4l2.6,1.5c1.1,0.6,2.5,0.3,3.2-0.8l2.8-4.9
		c0.3-0.5,0.4-1.2,0.2-1.8C29.2,17.7,28.8,17.2,28.3,16.9z M14.7,19.8c-2.7,0-4.8-2.2-4.8-4.8s2.2-4.8,4.8-4.8s4.8,2.2,4.8,4.8
		S17.4,19.8,14.7,19.8z"/>
</g>
</svg>
