<?xml version="1.0" encoding="utf-8"?>
<!-- Generator: Adobe Illustrator 26.2.1, SVG Export Plug-In . SVG Version: 6.00 Build 0)  -->
<svg version="1.1" id="圖層_1" xmlns="http://www.w3.org/2000/svg" xmlns:xlink="http://www.w3.org/1999/xlink" x="0px" y="0px"
	 viewBox="0 0 11.9 10.2" style="enable-background:new 0 0 11.9 10.2;" xml:space="preserve">
<style type="text/css">
	.st0{fill:#7C7B7B;}
</style>
<g id="bg_00000065787940371766393870000004238595996420602026_">
</g>
<g id="pic">
</g>
<g id="icon">
	<path id="icon_00000155855966946554564430000003718275016939118987_" class="st0" d="M11.8,0.5C11.8,0.4,11.8,0.4,11.8,0.5
		C11.8,0.4,11.8,0.4,11.8,0.5C11.8,0.4,11.8,0.4,11.8,0.5C11.8,0.4,11.8,0.4,11.8,0.5L11.8,0.5L11.8,0.5L11.8,0.5L11.8,0.5L11.8,0.5
		L11.8,0.5L11.8,0.5L11.8,0.5L11.8,0.5L11.8,0.5L11.8,0.5L11.8,0.5L11.8,0.5L11.8,0.5L11.8,0.5L11.8,0.5L11.8,0.5L11.8,0.5L11.8,0.5
		L11.8,0.5L11.8,0.5L11.8,0.5L11.8,0.5L11.8,0.5L0.4,0.4c-0.5,0.2-0.5,0.7-0.2,0.9l3.6,3.2l5.7-2.6l0,0l0,0l0,0L4.3,5L5,9.7
		c0,0.2,0.2,0.4,0.4,0.4h0.1c0.2,0,0.4-0.1,0.4-0.2l5.7-9l0.1-0.1l0,0l0,0l0,0l0,0l0,0l0,0l0,0l0,0l0,0l0,0l0,0l0,0
		C11.9,0.6,11.9,0.6,11.8,0.5L11.8,0.5L11.8,0.5z"/>
</g>
</svg>
