<?xml version="1.0" encoding="utf-8"?>
<!-- Generator: Adobe Illustrator 26.2.1, SVG Export Plug-In . SVG Version: 6.00 Build 0)  -->
<svg version="1.1" id="圖層_1" xmlns="http://www.w3.org/2000/svg" xmlns:xlink="http://www.w3.org/1999/xlink" x="0px" y="0px"
	 viewBox="0 0 24 24" style="enable-background:new 0 0 24 24;" xml:space="preserve">
<style type="text/css">
	.st0{fill:#7C7B7B;}
</style>
<g id="bg_00000065787940371766393870000004238595996420602026_">
</g>
<g id="pic">
</g>
<g id="icon">
	<g>
		<g>
			<path class="st0" d="M14.8,19.6H9c-0.5,0-1,0.5-1,1v0.1c0,0.5,0.5,1,1,1h1v0.3c0,1,0.8,1.8,1.8,1.8h0.3c1,0,1.8-0.8,1.8-1.8v-0.3
				h1c0.5,0,1-0.5,1-1v-0.1C15.9,20.1,15.4,19.6,14.8,19.6z"/>
			<path class="st0" d="M11,0.1C7.7,0.5,4.6,3.7,4.2,6.9c-0.3,2.5,0.6,4.8,2.2,6.4c0.9,1,1.4,2.2,1.4,3.5l0,0C7.8,17.5,8.3,18,9,18
				h6.1c0.7,0,1.2-0.5,1.2-1.2c0-1.3,0.5-2.5,1.4-3.5c1.4-1.4,2.2-3.3,2.2-5.4C19.7,3.3,15.7-0.4,11,0.1z M11.2,15
				c0,0.4-0.3,0.7-0.7,0.7S9.7,15.4,9.7,15v-3.3c0-1-0.8-1.9-1.9-1.9C7.4,9.8,7,9.4,7,9s0.3-0.7,0.7-0.7c1.9,0,3.4,1.5,3.4,3.4V15z
				 M16.1,9.9c-1,0-1.9,0.8-1.9,1.9V15c0,0.4-0.3,0.7-0.7,0.7s-0.7-0.3-0.7-0.7v-3.3c0-1.9,1.5-3.4,3.4-3.4c0.4,0,0.7,0.3,0.7,0.7
				C16.9,9.5,16.5,9.9,16.1,9.9z"/>
		</g>
	</g>
</g>
</svg>
