<?xml version="1.0" encoding="utf-8"?>
<!-- Generator: Adobe Illustrator 26.2.1, SVG Export Plug-In . SVG Version: 6.00 Build 0)  -->
<svg version="1.1" id="圖層_1" xmlns="http://www.w3.org/2000/svg" xmlns:xlink="http://www.w3.org/1999/xlink" x="0px" y="0px"
	 viewBox="0 0 24 24" style="enable-background:new 0 0 24 24;" xml:space="preserve">
<style type="text/css">
	.st0{fill:#7C7B7B;}
</style>
<g id="bg_00000065787940371766393870000004238595996420602026_">
</g>
<g id="pic">
</g>
<g id="icon">
	<g>
		<path class="st0" d="M16.4,22.9H7.7c-1.2,0-2.4-0.7-3-1.7l-4.3-7.5c-0.6-1.1-0.6-2.4,0-3.4l4.3-7.5c0.6-1.1,1.7-1.7,3-1.7h8.6
			c1.2,0,2.4,0.7,3,1.7l4.3,7.5c0.6,1.1,0.6,2.4,0,3.4l-4.3,7.5C18.7,22.2,17.5,22.9,16.4,22.9z M8.1,2.6c-0.9,0-1.8,0.5-2.3,1.3
			l-3.9,6.8c-0.5,0.8-0.5,1.8,0,2.6l3.9,6.8c0.5,0.8,1.3,1.3,2.3,1.3h7.9c0.9,0,1.8-0.5,2.3-1.3l3.9-6.8c0.5-0.8,0.5-1.8,0-2.6
			l-3.9-6.8c-0.5-0.8-1.3-1.3-2.3-1.3C15.9,2.6,8.1,2.6,8.1,2.6z"/>
		<g>
			<path class="st0" d="M11,12.5l-0.2-3.9c0-0.7,0-1.3,0-1.6c0-0.4,0.1-0.8,0.3-1s0.5-0.4,0.9-0.4c0.4,0,0.7,0.1,0.9,0.5
				c0.1,0.3,0.2,0.8,0.2,1.4c0,0.3,0,0.7,0,1.1l-0.3,4c0,0.5-0.1,0.8-0.2,1.1c-0.1,0.2-0.3,0.4-0.6,0.4c-0.3,0-0.5-0.1-0.6-0.3
				C11.1,13.4,11,13,11,12.5z M11.9,17.8c-0.3,0-0.6-0.1-0.8-0.3s-0.3-0.5-0.3-0.9c0-0.3,0.1-0.6,0.3-0.8c0.2-0.2,0.5-0.3,0.8-0.3
				c0.3,0,0.6,0.1,0.8,0.3c0.2,0.2,0.3,0.5,0.3,0.8c0,0.4-0.1,0.6-0.3,0.9C12.5,17.7,12.2,17.8,11.9,17.8z"/>
		</g>
	</g>
</g>
</svg>
