<?xml version="1.0" encoding="utf-8"?>
<!-- Generator: Adobe Illustrator 24.0.3, SVG Export Plug-In . SVG Version: 6.00 Build 0)  -->
<svg version="1.1" id="圖層_1" xmlns="http://www.w3.org/2000/svg" xmlns:xlink="http://www.w3.org/1999/xlink" x="0px" y="0px"
	 viewBox="0 0 128.9 41.2" style="enable-background:new 0 0 128.9 41.2;" xml:space="preserve">
<style type="text/css">
	.st0{fill:#7C7B7B;}
</style>
<title>loading_logoTxt</title>
<g>
	<path class="st0" d="M0.7,40.5L15.5,9.3h0.3l15,31.1h-6.8L21.4,35H9.9l-2.4,5.4H0.7V40.5z M12,30.4h7.5c-1.7-3.8-2.9-6.8-3.7-9.1
		c0,0.1-0.5,1.4-1.6,3.8S12.5,29.4,12,30.4z"/>
	<path class="st0" d="M54.3,34.4V9.8h6.3v23.3c0,1.7,0.7,2.6,2.1,2.6c0.8,0,1.4-0.1,2.1-0.4v5.3c-0.9,0.4-2.2,0.7-4.1,0.7
		c-2,0-3.5-0.5-4.7-1.6C54.9,38.4,54.3,36.7,54.3,34.4z"/>
	<rect x="72.9" y="19.1" class="st0" width="6.4" height="21.3"/>
	<path class="st0" d="M87.4,19.1h3v-2c0-2.5,0.8-4.5,2.4-5.9C94.3,9.8,96.4,9,99.3,9c1.1,0,2.1,0.1,2.8,0.3v5.5
		c-0.5-0.3-1.3-0.3-2.2-0.3c-1.1,0-2,0.3-2.6,0.9c-0.7,0.7-0.9,1.4-0.9,2.5v1.2h5v5h-4.7v16.3h-6.3V24.1h-2.9V19.1z"/>
	<path class="st0" d="M118.2,18.6c3.2,0,5.5,0.9,7.4,2.9c1.7,2,2.6,4.3,2.6,7.1c0,0.7,0,1.4-0.1,2.6H114c0.1,1.4,0.7,2.6,1.7,3.4
		s2.5,1.2,4.2,1.2c1.4,0,2.8-0.1,4.2-0.5c1.4-0.3,2.5-0.7,3.2-1.1v5.4c-2,1.1-4.6,1.6-8,1.6c-3.5,0-6.6-1.1-8.7-3.2
		c-2.2-2.1-3.3-4.9-3.3-8.1c0-3.2,1.1-5.9,3.2-8C112.7,19.7,115.2,18.6,118.2,18.6z M122.2,27.8c0-1.2-0.3-2.2-0.9-3
		c-0.7-0.8-1.7-1.2-2.9-1.2c-1.2,0-2.2,0.4-2.9,1.2c-0.8,0.8-1.2,1.8-1.2,3H122.2z"/>
	<path class="st0" d="M37.5,34.4V9.8h6.3v23.3c0,1.7,0.7,2.6,2.1,2.6c0.8,0,1.4-0.1,2.1-0.4v5.3c-0.8,0.4-2.2,0.5-3.9,0.5
		c-2,0-3.5-0.5-4.7-1.6C38,38.4,37.5,36.7,37.5,34.4z"/>
</g>
</svg>
